<svg xmlns="http://www.w3.org/2000/svg" xmlns:xlink="http://www.w3.org/1999/xlink" width="300" zoomAndPan="magnify" viewBox="0 0 224.87999 225" height="300" preserveAspectRatio="xMidYMid meet" version="1.0"><defs><clipPath id="2d1305fa68"><path d="M 0 0.0585938 L 224.761719 0.0585938 L 224.761719 224.9375 L 0 224.9375 Z M 0 0.0585938 " clip-rule="nonzero"/></clipPath></defs><g clip-path="url(#2d1305fa68)"><path fill="#ffffff" d="M 0 0.0585938 L 224.878906 0.0585938 L 224.878906 224.941406 L 0 224.941406 Z M 0 0.0585938 " fill-opacity="1" fill-rule="nonzero"/></g><path stroke-linecap="butt" transform="matrix(6.077838, 0, 0, 6.077838, 0, 0.060015)" fill-opacity="1" fill="#ffffff" fill-rule="nonzero" stroke-linejoin="miter" d="M 2.000095 2.499884 L 8.999783 2.499884 M 10.999877 2.499884 L 12.999972 2.499884 M 15.000067 2.499884 L 16.000114 2.499884 M 17.000161 2.499884 L 20.000303 2.499884 M 20.999708 2.499884 L 23.999849 2.499884 M 24.999897 2.499884 L 25.999944 2.499884 M 28.000039 2.499884 L 34.999727 2.499884 M 2.000095 3.499932 L 3.000142 3.499932 M 7.999736 3.499932 L 8.999783 3.499932 M 11.999925 3.499932 L 20.000303 3.499932 M 21.999755 3.499932 L 22.999802 3.499932 M 28.000039 3.499932 L 29.000086 3.499932 M 33.99968 3.499932 L 34.999727 3.499932 M 2.000095 4.499979 L 3.000142 4.499979 M 4.000189 4.499979 L 6.999688 4.499979 M 7.999736 4.499979 L 8.999783 4.499979 M 9.99983 4.499979 L 12.999972 4.499979 M 14.000019 4.499979 L 16.000114 4.499979 M 17.000161 4.499979 L 20.999708 4.499979 M 22.999802 4.499979 L 24.999897 4.499979 M 28.000039 4.499979 L 29.000086 4.499979 M 30.000133 4.499979 L 33.000275 4.499979 M 33.99968 4.499979 L 34.999727 4.499979 M 2.000095 5.500026 L 3.000142 5.500026 M 4.000189 5.500026 L 6.999688 5.500026 M 7.999736 5.500026 L 8.999783 5.500026 M 9.99983 5.500026 L 10.999877 5.500026 M 16.000114 5.500026 L 17.000161 5.500026 M 18.000208 5.500026 L 19.000256 5.500026 M 21.999755 5.500026 L 22.999802 5.500026 M 23.999849 5.500026 L 24.999897 5.500026 M 25.999944 5.500026 L 26.999991 5.500026 M 28.000039 5.500026 L 29.000086 5.500026 M 30.000133 5.500026 L 33.000275 5.500026 M 33.99968 5.500026 L 34.999727 5.500026 M 2.000095 6.500074 L 3.000142 6.500074 M 4.000189 6.500074 L 6.999688 6.500074 M 7.999736 6.500074 L 8.999783 6.500074 M 9.99983 6.500074 L 11.999925 6.500074 M 12.999972 6.500074 L 14.000019 6.500074 M 17.000161 6.500074 L 18.000208 6.500074 M 20.000303 6.500074 L 20.999708 6.500074 M 22.999802 6.500074 L 23.999849 6.500074 M 24.999897 6.500074 L 25.999944 6.500074 M 28.000039 6.500074 L 29.000086 6.500074 M 30.000133 6.500074 L 33.000275 6.500074 M 33.99968 6.500074 L 34.999727 6.500074 M 2.000095 7.500121 L 3.000142 7.500121 M 7.999736 7.500121 L 8.999783 7.500121 M 9.99983 7.500121 L 10.999877 7.500121 M 12.999972 7.500121 L 16.000114 7.500121 M 17.000161 7.500121 L 19.000256 7.500121 M 21.999755 7.500121 L 22.999802 7.500121 M 28.000039 7.500121 L 29.000086 7.500121 M 33.99968 7.500121 L 34.999727 7.500121 M 2.000095 8.500168 L 8.999783 8.500168 M 9.99983 8.500168 L 10.999877 8.500168 M 11.999925 8.500168 L 12.999972 8.500168 M 14.000019 8.500168 L 15.000067 8.500168 M 16.000114 8.500168 L 17.000161 8.500168 M 18.000208 8.500168 L 19.000256 8.500168 M 20.000303 8.500168 L 20.999708 8.500168 M 21.999755 8.500168 L 22.999802 8.500168 M 23.999849 8.500168 L 24.999897 8.500168 M 25.999944 8.500168 L 26.999991 8.500168 M 28.000039 8.500168 L 34.999727 8.500168 M 9.99983 9.500215 L 10.999877 9.500215 M 14.000019 9.500215 L 15.000067 9.500215 M 17.000161 9.500215 L 18.000208 9.500215 M 20.000303 9.500215 L 20.999708 9.500215 M 22.999802 9.500215 L 23.999849 9.500215 M 25.999944 9.500215 L 26.999991 9.500215 M 2.000095 10.500263 L 3.000142 10.500263 M 4.000189 10.500263 L 8.999783 10.500263 M 10.999877 10.500263 L 11.999925 10.500263 M 15.000067 10.500263 L 18.000208 10.500263 M 19.000256 10.500263 L 20.000303 10.500263 M 28.000039 10.500263 L 33.000275 10.500263 M 3.000142 11.50031 L 6.000284 11.50031 M 6.999688 11.50031 L 7.999736 11.50031 M 8.999783 11.50031 L 9.99983 11.50031 M 10.999877 11.50031 L 15.000067 11.50031 M 16.000114 11.50031 L 17.000161 11.50031 M 20.000303 11.50031 L 23.999849 11.50031 M 24.999897 11.50031 L 25.999944 11.50031 M 28.000039 11.50031 L 30.000133 11.50031 M 31.000181 11.50031 L 33.000275 11.50031 M 33.99968 11.50031 L 34.999727 11.50031 M 2.000095 12.499715 L 3.000142 12.499715 M 4.000189 12.499715 L 6.000284 12.499715 M 6.999688 12.499715 L 8.999783 12.499715 M 10.999877 12.499715 L 11.999925 12.499715 M 17.000161 12.499715 L 19.000256 12.499715 M 20.000303 12.499715 L 20.999708 12.499715 M 22.999802 12.499715 L 23.999849 12.499715 M 25.999944 12.499715 L 26.999991 12.499715 M 30.000133 12.499715 L 31.000181 12.499715 M 32.000228 12.499715 L 33.99968 12.499715 M 2.000095 13.499762 L 5.000236 13.499762 M 8.999783 13.499762 L 9.99983 13.499762 M 10.999877 13.499762 L 11.999925 13.499762 M 12.999972 13.499762 L 14.000019 13.499762 M 16.000114 13.499762 L 17.000161 13.499762 M 18.000208 13.499762 L 19.000256 13.499762 M 20.999708 13.499762 L 24.999897 13.499762 M 25.999944 13.499762 L 29.000086 13.499762 M 30.000133 13.499762 L 33.000275 13.499762 M 2.000095 14.499809 L 5.000236 14.499809 M 6.000284 14.499809 L 6.999688 14.499809 M 7.999736 14.499809 L 8.999783 14.499809 M 9.99983 14.499809 L 11.999925 14.499809 M 17.000161 14.499809 L 18.000208 14.499809 M 20.000303 14.499809 L 20.999708 14.499809 M 23.999849 14.499809 L 28.000039 14.499809 M 29.000086 14.499809 L 32.000228 14.499809 M 33.000275 14.499809 L 33.99968 14.499809 M 6.000284 15.499856 L 7.999736 15.499856 M 12.999972 15.499856 L 14.000019 15.499856 M 15.000067 15.499856 L 19.000256 15.499856 M 21.999755 15.499856 L 22.999802 15.499856 M 24.999897 15.499856 L 25.999944 15.499856 M 26.999991 15.499856 L 29.000086 15.499856 M 31.000181 15.499856 L 34.999727 15.499856 M 2.000095 16.499904 L 5.000236 16.499904 M 6.999688 16.499904 L 10.999877 16.499904 M 11.999925 16.499904 L 12.999972 16.499904 M 15.000067 16.499904 L 17.000161 16.499904 M 20.999708 16.499904 L 21.999755 16.499904 M 23.999849 16.499904 L 24.999897 16.499904 M 26.999991 16.499904 L 29.000086 16.499904 M 30.000133 16.499904 L 33.99968 16.499904 M 2.000095 17.499951 L 3.000142 17.499951 M 5.000236 17.499951 L 6.999688 17.499951 M 9.99983 17.499951 L 10.999877 17.499951 M 11.999925 17.499951 L 14.000019 17.499951 M 15.000067 17.499951 L 16.000114 17.499951 M 18.000208 17.499951 L 19.000256 17.499951 M 20.999708 17.499951 L 23.999849 17.499951 M 26.999991 17.499951 L 30.000133 17.499951 M 31.000181 17.499951 L 33.000275 17.499951 M 3.000142 18.499998 L 4.000189 18.499998 M 6.000284 18.499998 L 8.999783 18.499998 M 9.99983 18.499998 L 10.999877 18.499998 M 15.000067 18.499998 L 17.000161 18.499998 M 19.000256 18.499998 L 20.000303 18.499998 M 20.999708 18.499998 L 21.999755 18.499998 M 23.999849 18.499998 L 28.000039 18.499998 M 29.000086 18.499998 L 32.000228 18.499998 M 33.99968 18.499998 L 34.999727 18.499998 M 3.000142 19.500046 L 5.000236 19.500046 M 6.000284 19.500046 L 7.999736 19.500046 M 8.999783 19.500046 L 11.999925 19.500046 M 15.000067 19.500046 L 17.000161 19.500046 M 18.000208 19.500046 L 20.999708 19.500046 M 21.999755 19.500046 L 23.999849 19.500046 M 24.999897 19.500046 L 25.999944 19.500046 M 28.000039 19.500046 L 30.000133 19.500046 M 31.000181 19.500046 L 34.999727 19.500046 M 2.000095 20.500093 L 3.000142 20.500093 M 4.000189 20.500093 L 5.000236 20.500093 M 7.999736 20.500093 L 8.999783 20.500093 M 11.999925 20.500093 L 14.000019 20.500093 M 17.000161 20.500093 L 20.000303 20.500093 M 21.999755 20.500093 L 24.999897 20.500093 M 25.999944 20.500093 L 26.999991 20.500093 M 29.000086 20.500093 L 31.000181 20.500093 M 32.000228 20.500093 L 33.99968 20.500093 M 2.000095 21.50014 L 3.000142 21.50014 M 4.000189 21.50014 L 5.000236 21.50014 M 8.999783 21.50014 L 11.999925 21.50014 M 12.999972 21.50014 L 14.000019 21.50014 M 16.000114 21.50014 L 23.999849 21.50014 M 28.000039 21.50014 L 34.999727 21.50014 M 2.000095 22.500187 L 3.000142 22.500187 M 5.000236 22.500187 L 6.999688 22.500187 M 7.999736 22.500187 L 8.999783 22.500187 M 10.999877 22.500187 L 14.000019 22.500187 M 16.000114 22.500187 L 19.000256 22.500187 M 20.999708 22.500187 L 21.999755 22.500187 M 23.999849 22.500187 L 24.999897 22.500187 M 25.999944 22.500187 L 28.000039 22.500187 M 30.000133 22.500187 L 32.000228 22.500187 M 2.000095 23.500235 L 4.000189 23.500235 M 6.000284 23.500235 L 7.999736 23.500235 M 8.999783 23.500235 L 12.999972 23.500235 M 17.000161 23.500235 L 18.000208 23.500235 M 20.000303 23.500235 L 20.999708 23.500235 M 22.999802 23.500235 L 23.999849 23.500235 M 24.999897 23.500235 L 29.000086 23.500235 M 32.000228 23.500235 L 33.000275 23.500235 M 33.99968 23.500235 L 34.999727 23.500235 M 2.000095 24.500282 L 3.000142 24.500282 M 4.000189 24.500282 L 5.000236 24.500282 M 6.999688 24.500282 L 9.99983 24.500282 M 10.999877 24.500282 L 15.000067 24.500282 M 16.000114 24.500282 L 20.999708 24.500282 M 21.999755 24.500282 L 22.999802 24.500282 M 26.999991 24.500282 L 28.000039 24.500282 M 30.000133 24.500282 L 31.000181 24.500282 M 33.000275 24.500282 L 33.99968 24.500282 M 2.000095 25.499687 L 3.000142 25.499687 M 4.000189 25.499687 L 5.000236 25.499687 M 6.000284 25.499687 L 7.999736 25.499687 M 10.999877 25.499687 L 11.999925 25.499687 M 15.000067 25.499687 L 18.000208 25.499687 M 22.999802 25.499687 L 24.999897 25.499687 M 26.999991 25.499687 L 29.000086 25.499687 M 30.000133 25.499687 L 33.000275 25.499687 M 33.99968 25.499687 L 34.999727 25.499687 M 2.000095 26.499734 L 3.000142 26.499734 M 4.000189 26.499734 L 5.000236 26.499734 M 6.999688 26.499734 L 8.999783 26.499734 M 9.99983 26.499734 L 21.999755 26.499734 M 23.999849 26.499734 L 32.000228 26.499734 M 9.99983 27.499781 L 11.999925 27.499781 M 14.000019 27.499781 L 15.000067 27.499781 M 18.000208 27.499781 L 19.000256 27.499781 M 20.000303 27.499781 L 21.999755 27.499781 M 22.999802 27.499781 L 23.999849 27.499781 M 24.999897 27.499781 L 26.999991 27.499781 M 30.000133 27.499781 L 31.000181 27.499781 M 32.000228 27.499781 L 34.999727 27.499781 M 2.000095 28.499828 L 8.999783 28.499828 M 12.999972 28.499828 L 14.000019 28.499828 M 17.000161 28.499828 L 18.000208 28.499828 M 20.000303 28.499828 L 20.999708 28.499828 M 21.999755 28.499828 L 26.999991 28.499828 M 28.000039 28.499828 L 29.000086 28.499828 M 30.000133 28.499828 L 31.000181 28.499828 M 32.000228 28.499828 L 33.99968 28.499828 M 2.000095 29.499876 L 3.000142 29.499876 M 7.999736 29.499876 L 8.999783 29.499876 M 9.99983 29.499876 L 10.999877 29.499876 M 11.999925 29.499876 L 12.999972 29.499876 M 14.000019 29.499876 L 16.000114 29.499876 M 21.999755 29.499876 L 26.999991 29.499876 M 30.000133 29.499876 L 33.99968 29.499876 M 2.000095 30.499923 L 3.000142 30.499923 M 4.000189 30.499923 L 6.999688 30.499923 M 7.999736 30.499923 L 8.999783 30.499923 M 9.99983 30.499923 L 12.999972 30.499923 M 15.000067 30.499923 L 16.000114 30.499923 M 17.000161 30.499923 L 18.000208 30.499923 M 20.000303 30.499923 L 22.999802 30.499923 M 23.999849 30.499923 L 24.999897 30.499923 M 25.999944 30.499923 L 32.000228 30.499923 M 33.000275 30.499923 L 33.99968 30.499923 M 2.000095 31.49997 L 3.000142 31.49997 M 4.000189 31.49997 L 6.999688 31.49997 M 7.999736 31.49997 L 8.999783 31.49997 M 9.99983 31.49997 L 10.999877 31.49997 M 11.999925 31.49997 L 12.999972 31.49997 M 16.000114 31.49997 L 20.000303 31.49997 M 20.999708 31.49997 L 22.999802 31.49997 M 24.999897 31.49997 L 28.000039 31.49997 M 30.000133 31.49997 L 31.000181 31.49997 M 32.000228 31.49997 L 34.999727 31.49997 M 2.000095 32.500018 L 3.000142 32.500018 M 4.000189 32.500018 L 6.999688 32.500018 M 7.999736 32.500018 L 8.999783 32.500018 M 9.99983 32.500018 L 10.999877 32.500018 M 11.999925 32.500018 L 12.999972 32.500018 M 14.000019 32.500018 L 15.000067 32.500018 M 21.999755 32.500018 L 22.999802 32.500018 M 23.999849 32.500018 L 24.999897 32.500018 M 28.000039 32.500018 L 30.000133 32.500018 M 31.000181 32.500018 L 32.000228 32.500018 M 2.000095 33.500065 L 3.000142 33.500065 M 7.999736 33.500065 L 8.999783 33.500065 M 10.999877 33.500065 L 14.000019 33.500065 M 15.000067 33.500065 L 17.000161 33.500065 M 18.000208 33.500065 L 19.000256 33.500065 M 21.999755 33.500065 L 24.999897 33.500065 M 26.999991 33.500065 L 28.000039 33.500065 M 30.000133 33.500065 L 31.000181 33.500065 M 32.000228 33.500065 L 33.000275 33.500065 M 2.000095 34.500112 L 8.999783 34.500112 M 9.99983 34.500112 L 10.999877 34.500112 M 11.999925 34.500112 L 15.000067 34.500112 M 16.000114 34.500112 L 17.000161 34.500112 M 20.999708 34.500112 L 21.999755 34.500112 M 23.999849 34.500112 L 28.000039 34.500112 M 29.000086 34.500112 L 30.000133 34.500112 M 33.000275 34.500112 L 33.99968 34.500112 " stroke="#000000" stroke-width="1" stroke-opacity="1" stroke-miterlimit="4"/></svg>