<svg xmlns="http://www.w3.org/2000/svg" width="300" viewBox="0 0 224.88 225" height="300" version="1.0"><defs><clipPath id="a"><path d="M0 .059h224.762v224.879H0Zm0 0"/></clipPath></defs><g clip-path="url(#a)"><path fill="#fff" d="M0 .059h224.879V224.94H0Zm0 0"/></g><path fill="#fff" d="M12.156 15.254H54.7m12.156 0h12.157m12.156 0h6.078m6.078 0h18.235m6.074 0h18.234m6.078 0h6.078m12.157 0h42.543M12.156 21.332h6.078m30.387 0H54.7m18.235 0h48.625m12.152 0h6.078m30.39 0h6.079m30.387 0h6.078M12.156 27.41h6.078m6.079 0h18.23m6.078 0H54.7m6.078 0h18.235m6.078 0h12.156m6.078 0h24.309m12.156 0h12.156m18.235 0h6.078m6.078 0h18.234m6.075 0h6.078M12.156 33.488h6.078m6.079 0h18.23m6.078 0H54.7m6.078 0h6.078m30.391 0h6.078m6.078 0h6.078m18.23 0h6.08m6.077 0h6.078m6.078 0h6.079m6.078 0h6.078m6.078 0h18.234m6.075 0h6.078M12.156 39.566h6.078m6.079 0h18.23m6.078 0H54.7m6.078 0h12.157m6.078 0h6.078m18.234 0h6.078m12.157 0h6.074m12.156 0h6.078m6.078 0h6.078m12.157 0h6.078m6.078 0h18.234m6.075 0h6.078M12.156 45.645h6.078m30.387 0H54.7m6.078 0h6.078m12.157 0h18.234m6.078 0h12.156m18.23 0h6.08m30.39 0h6.078m30.387 0h6.078M12.156 51.723H54.7m6.078 0h6.078m6.079 0h6.078m6.078 0h6.078m6.078 0h6.078m6.078 0h6.078m6.079 0h6.074m6.078 0h6.078m6.078 0h6.078m6.078 0h6.079m6.078 0h42.543M60.777 57.8h6.078m18.235 0h6.078m12.156 0h6.078m12.157 0h6.074m12.156 0h6.078m12.156 0h6.079M12.156 63.879h6.078m6.079 0h30.386m12.156 0h6.079m18.234 0h18.234m6.078 0h6.079m48.62 0h30.391M18.234 69.957H36.47m6.074 0h6.078m6.078 0h6.078m6.078 0h24.313m6.078 0h6.078m18.235 0h24.308m6.078 0h6.078m12.157 0h12.156m6.078 0h12.156m6.075 0h6.078M12.156 76.031h6.078m6.079 0h12.156m6.074 0h12.156m12.156 0h6.079m30.39 0h12.156m6.079 0h6.074m12.156 0h6.078m12.156 0h6.079m18.234 0h6.078m6.078 0h12.153M12.156 82.11h18.235m24.308 0h6.078m6.078 0h6.079m6.078 0h6.078m12.156 0h6.078m6.078 0h6.078m12.153 0h24.312m6.078 0h18.235m6.078 0h18.234M12.156 88.188h18.235m6.078 0h6.074m6.078 0H54.7m6.078 0h12.157m30.39 0h6.078m12.157 0h6.074m18.234 0h24.313m6.078 0h18.234m6.078 0h6.075M36.469 94.266H48.62m30.39 0h6.079m6.078 0h24.312m18.23 0h6.08m12.155 0h6.078m6.079 0h12.156m12.156 0h24.309m-200.567 6.078h18.235m12.152 0h24.312m6.079 0h6.078m12.156 0h12.156m24.309 0h6.078m12.156 0h6.078m12.157 0h12.156m6.078 0h24.309m-194.489 6.078h6.078m12.157 0h12.152m18.234 0h6.078m6.079 0H85.09m6.078 0h6.078m12.156 0h6.078m12.153 0h18.234m18.235 0h18.234m6.078 0h12.156M18.234 112.5h6.079m12.156 0h18.23m6.078 0h6.078m24.313 0h12.156m12.156 0h6.079m6.074 0h6.078m12.156 0h24.313m6.078 0h18.234m12.153 0h6.078m-194.489 6.078h12.157m6.078 0H48.62m6.078 0h18.235m18.234 0h12.156m6.078 0h18.23m6.079 0h12.156m6.078 0h6.078m12.157 0h12.156m6.078 0h24.309m-200.567 6.078h6.078m6.079 0h6.078m18.23 0H54.7m18.235 0H85.09m18.234 0h18.235m12.152 0h18.234m6.078 0h6.079m12.156 0h12.156m6.078 0h12.153m-194.489 6.078h6.078m6.079 0h6.078m24.308 0h18.235m6.078 0h6.078m12.156 0h48.621m24.313 0h42.543m-200.567 6.079h6.078m12.157 0h12.152m6.078 0H54.7m12.156 0H85.09m12.156 0h18.234m12.153 0h6.078m12.156 0h6.078m6.078 0h12.157m12.156 0h12.156M12.156 142.89h12.157m12.156 0H48.62m6.078 0h24.313m24.312 0h6.078m12.157 0h6.074m12.156 0h6.078m6.078 0h24.313m18.234 0h6.078m6.075 0h6.078m-200.567 6.078h6.078m6.079 0h6.078m12.152 0h18.234m6.078 0h24.313m6.078 0h30.387m6.078 0h6.078m24.313 0h6.078m12.156 0h6.078m12.156 0h6.075m-194.489 6.074h6.078m6.079 0h6.078m6.078 0H48.62m18.234 0h6.079m18.234 0h18.234m30.387 0h12.156m12.157 0h12.156m6.078 0h18.234m6.075 0h6.078m-200.567 6.078h6.078m6.079 0h6.078m12.152 0h12.156m6.078 0h72.934m12.156 0h48.625M60.777 167.2h12.157m12.156 0h6.078m18.234 0h6.078m6.079 0h12.152m6.078 0h6.078m6.078 0h12.157m18.234 0h6.078m6.078 0h18.23m-200.566 6.078H54.7m24.313 0h6.078m18.234 0h6.078m12.157 0h6.074m6.078 0h30.39m6.079 0h6.078m6.078 0h6.078m6.078 0h12.153m-194.489 6.078h6.078m30.387 0H54.7m6.078 0h6.078m6.079 0h6.078m6.078 0h12.156m36.465 0h30.39m18.235 0h24.309m-194.489 6.079h6.078m6.079 0h18.23m6.078 0H54.7m6.078 0h18.235m12.156 0h6.078m6.078 0h6.078m12.157 0h18.23m6.078 0h6.078m6.078 0h36.47m6.077 0h6.075m-194.489 6.078h6.078m6.079 0h18.23m6.078 0H54.7m6.078 0h6.078m6.079 0h6.078m18.234 0h24.313m6.074 0h12.156m12.156 0h18.235m12.156 0h6.078m6.078 0h18.23M12.157 197.59h6.078m6.079 0h18.23m6.078 0H54.7m6.078 0h6.078m6.079 0h6.078m6.078 0h6.078m42.543 0h6.078m6.078 0h6.078m18.235 0h12.156m6.078 0h6.078m-182.336 6.078h6.078m30.387 0H54.7m12.156 0H85.09m6.078 0h12.156m6.078 0h6.078m18.23 0h18.235m12.157 0h6.078m12.156 0h6.078m6.078 0h6.078m-188.414 6.078H54.7m6.078 0h6.078m6.079 0h18.234m6.078 0h6.078m24.309 0h6.078m12.156 0h24.313m6.078 0h6.078m18.234 0h6.075" stroke="#000" stroke-width="6.07784"/></svg>